HIERARCHY
ROOT hip
{
	OFFSET 0.000000 0.000000 0.000000 
	CHANNELS 6 Xposition Yposition Zposition Xrotation Zrotation Yrotation
	JOINT abdomen
	{
		OFFSET 0.000000 3.402643 0.000000 
		CHANNELS 3 Xrotation Zrotation Yrotation
		JOINT chest
		{
			OFFSET 0.000000 8.438565 -0.680529 
			CHANNELS 3 Xrotation Zrotation Yrotation
			JOINT neck
			{
				OFFSET 0.000000 10.207942 -0.272212 
				CHANNELS 3 Xrotation Zrotation Yrotation
				JOINT head
				{
					OFFSET 0.000000 3.130431 0.000000 
					CHANNELS 3 Xrotation Zrotation Yrotation
					End Site
					{
						OFFSET 0.000000 3.130435 0.000000 
					}
				}
			}
			JOINT lCollar
			{
				OFFSET 3.470700 6.669187 -0.816635 
				CHANNELS 3 Yrotation Zrotation Xrotation
				JOINT lShldr
				{
					OFFSET 3.198488 0.000000 0.000000 
					CHANNELS 3 Zrotation Yrotation Xrotation
					JOINT lForeArm
					{
						OFFSET 10.139888 0.000000 0.000000 
						CHANNELS 3 Yrotation Zrotation Xrotation
						JOINT lHand
						{
							OFFSET 8.370511 0.000000 0.000000 
							CHANNELS 3 Zrotation Yrotation Xrotation
							End Site
							{
								OFFSET 4.083176 0.000000 0.000000 
							}
						}
					}
				}
			}
			JOINT rCollar
			{
				OFFSET -3.470700 6.669187 -0.816635 
				CHANNELS 3 Yrotation Zrotation Xrotation
				JOINT rShldr
				{
					OFFSET -3.198488 0.000000 0.000000 
					CHANNELS 3 Zrotation Yrotation Xrotation
					JOINT rForeArm
					{
						OFFSET -10.139888 0.000000 0.000000 
						CHANNELS 3 Yrotation Zrotation Xrotation
						JOINT rHand
						{
							OFFSET -8.370511 0.000000 0.000000 
							CHANNELS 3 Zrotation Yrotation Xrotation
							End Site
							{
								OFFSET -4.083176 0.000000 0.000000 
							}
						}
					}
				}
			}
		}
	}
	JOINT lThigh
	{
		OFFSET 5.308129 -1.633274 1.361059 
		CHANNELS 3 Xrotation Zrotation Yrotation
		JOINT lShin
		{
			OFFSET -2.041588 -20.007561 0.000000 
			CHANNELS 3 Xrotation Zrotation Yrotation
			JOINT lFoot
			{
				OFFSET 0.000000 -19.190928 -1.224953 
				CHANNELS 3 Xrotation Yrotation Zrotation
				End Site
				{
					OFFSET 0.000000 -2.449906 4.627600 
				}
			}
		}
	}
	JOINT rThigh
	{
		OFFSET -5.308129 -1.633274 1.361059 
		CHANNELS 3 Xrotation Zrotation Yrotation
		JOINT rShin
		{
			OFFSET 2.041588 -20.007561 0.000000 
			CHANNELS 3 Xrotation Zrotation Yrotation
			JOINT rFoot
			{
				OFFSET 0.000000 -19.190928 -1.224953 
				CHANNELS 3 Xrotation Yrotation Zrotation
				End Site
				{
					OFFSET 0.000000 -2.449906 4.627600 
				}
			}
		}
	}
}
MOTION
Frames: 13
Frame Time: 0.033333
105.456337 41.351250 111.491638 -37.686714 10.817376 -162.761078 50.751957 -17.678009 5.796694 -20.839844 0.000000 0.000000 15.303987 -9.137435 2.625825 -2.520846 -1.255050 0.218350 -4.754609 -0.109183 -0.002653 -105.216606 -35.787350 27.849379 -72.839691 -7.833338 12.259198 12.385205 -10.433280 13.553058 4.754609 0.109183 -0.002672 44.654598 54.788513 -2.620571 118.114883 12.163465 1.148499 -56.925743 7.089203 7.541561 -48.768120 29.159826 -19.271492 -2.705828 0.964568 -5.385639 28.692108 35.909550 -35.951851 -74.729950 -9.921759 5.525974 43.970585 -3.561244 1.385940 -6.448050 -11.523972 12.368561 
105.088776 41.537048 111.547485 -37.400383 9.996202 -163.583923 50.954823 -17.427652 5.176451 -20.839844 0.000000 0.000000 14.025990 -9.418197 5.580091 -2.520846 -1.255050 0.218350 -4.754609 -0.109183 -0.002653 -104.795105 -35.857224 27.373331 -72.985985 -7.530760 12.077232 12.696891 -10.414145 13.431826 4.754609 0.109183 -0.002672 46.680649 53.184654 -0.821169 118.770500 12.982280 0.679707 -57.445660 7.221010 7.617859 -47.137077 29.149939 -18.329718 -3.082148 0.428662 -4.479194 27.736202 36.234592 -35.794678 -73.583389 -9.531178 6.286263 42.499416 -4.293699 1.969417 -5.637051 -12.072351 13.208008 
104.561806 41.738098 111.712479 -36.933464 9.636336 -164.416656 50.840034 -16.895842 3.899980 -20.839844 0.000000 0.000000 12.622352 -9.695497 9.441340 -2.520846 -1.255050 0.218350 -4.754609 -0.109183 -0.002653 -103.677483 -36.033798 26.405348 -73.261009 -7.185238 11.745968 12.578897 -10.338428 13.176641 4.754609 0.109183 -0.002672 48.559303 49.608982 0.381889 118.995270 13.677097 0.288660 -56.166931 7.562635 7.577157 -45.704834 29.450836 -17.784409 -3.558350 -0.390547 -3.795878 26.703209 37.036213 -35.767891 -72.119522 -9.345688 6.803539 40.519600 -4.634252 2.442093 -4.559331 -12.406080 14.087418 
103.937347 41.950306 111.931290 -36.285072 9.396595 -165.262009 50.692631 -16.368679 1.958657 -20.839844 0.000000 0.000000 10.871163 -9.895213 13.975440 -2.520846 -1.255050 0.218350 -4.754609 -0.109183 -0.002653 -101.786209 -36.527710 25.022652 -73.673996 -6.745348 11.289677 12.080516 -10.239793 12.840301 4.754609 0.109183 -0.002672 49.691319 44.554401 0.573131 118.800484 14.139155 0.214896 -53.804924 8.241799 7.575213 -44.189625 29.977444 -17.120369 -4.253870 -1.591792 -3.122879 25.712948 37.723400 -35.388088 -70.389595 -9.257751 7.321101 38.219097 -4.859141 2.969315 -3.299681 -12.761325 15.076017 
103.242340 42.172665 112.162788 -35.385262 8.848659 -165.892822 50.633160 -16.122124 0.505469 -20.839844 0.000000 0.000000 9.136925 -10.066585 17.692514 -2.520846 -1.255050 0.218350 -4.754609 -0.109183 -0.002653 -100.365494 -36.786690 24.136484 -74.475388 -6.734045 11.040707 11.486436 -10.087707 12.699466 4.754609 0.109183 -0.002672 50.054241 37.766949 -0.687899 117.854584 13.829565 0.947292 -50.348175 9.602587 7.703254 -42.265781 30.162580 -16.120268 -5.090808 -2.948225 -2.348408 24.785955 37.971828 -34.458427 -68.292183 -9.580195 8.015373 35.818920 -5.142718 3.635425 -2.001647 -13.156847 16.242985 
102.497574 42.414326 112.388206 -34.255711 7.998635 -166.076385 50.412708 -15.945771 -0.696456 -20.839844 0.000000 0.000000 7.695853 -10.188800 20.867001 -2.520846 -1.255050 0.218350 -4.754609 -0.109183 -0.002653 -98.756622 -36.876930 23.165108 -75.407211 -6.919673 11.012632 11.154772 -10.004205 12.792574 4.754609 0.109183 -0.002672 50.439663 30.151600 -2.518361 116.415886 12.979208 2.209815 -46.714390 11.448299 7.987226 -40.439392 29.712969 -15.095828 -5.296065 -4.305052 -1.680432 23.939903 37.668449 -33.761036 -65.838676 -10.429440 8.850848 33.384064 -5.541571 4.428800 -0.739928 -13.785317 17.593700 
101.735550 42.664097 112.579597 -32.898960 6.950961 -165.715668 50.116783 -15.646987 -1.816251 -20.839844 0.000000 0.000000 6.434292 -10.300439 23.597679 -2.520846 -1.255050 0.218350 -4.754609 -0.109183 -0.002653 -96.567352 -36.990513 21.756502 -76.439377 -7.010126 11.046357 11.084064 -9.938144 13.035678 4.754609 0.109183 -0.002672 50.949360 22.863485 -4.453182 114.785057 11.902841 3.590792 -43.645092 13.355331 8.347366 -38.892307 28.543228 -14.301337 -4.663914 -5.430251 -1.290527 22.775864 37.112831 -32.709023 -63.050064 -11.806339 9.807006 31.017637 -6.009033 5.192849 0.476033 -14.733787 19.123697 
100.999405 42.922009 112.712112 -31.303696 5.839899 -164.877960 49.736359 -15.110178 -2.515936 -20.839844 0.000000 0.000000 5.405132 -10.415461 25.537468 -2.520846 -1.255050 0.218350 -4.754609 -0.109183 -0.002653 -93.917557 -37.128197 19.999660 -77.316467 -7.000287 10.991016 11.338776 -9.961439 13.107227 4.754609 0.109183 -0.002672 51.537014 16.455931 -6.215631 113.309326 10.844839 4.827751 -41.337799 14.986207 8.743793 -39.504402 24.831543 -14.682933 1.154148 -3.141721 -1.747074 19.693811 36.423397 -32.539051 -59.922985 -13.583606 10.669548 28.815386 -6.400609 5.837865 1.580339 -15.952339 20.636709 
100.327751 43.196667 112.773521 -29.488470 4.797878 -163.713409 49.250298 -14.297535 -2.542427 -20.839844 0.000000 0.000000 4.522493 -10.521920 26.589987 -2.520846 -1.255050 0.218350 -4.754609 -0.109183 -0.002653 -91.028885 -37.192871 17.914650 -78.341812 -6.757543 10.778265 11.672225 -9.773618 13.063143 4.754609 0.109183 -0.002672 52.159290 11.313737 -7.569495 112.366028 10.029087 5.732459 -39.901192 16.099293 9.158791 -37.905346 22.439972 -14.649899 2.567449 -2.507196 -1.846160 18.292643 36.150578 -31.556686 -57.210400 -14.980263 11.261195 28.289476 -6.991640 6.062032 1.892427 -17.200815 19.286940 
99.751015 43.490604 112.762367 -27.452072 3.909995 -162.390091 48.691971 -13.210128 -1.904742 -20.839844 0.000000 0.000000 3.638466 -10.544713 26.985752 -2.520846 -1.255050 0.218350 -4.754609 -0.109183 -0.002653 -87.987396 -37.187302 15.573668 -79.478745 -6.284298 10.440624 12.115836 -9.392607 12.915790 4.754609 0.109183 -0.002672 52.751923 7.718285 -8.319357 112.183662 9.686663 6.282103 -39.396664 16.612808 9.650247 -35.293709 20.524702 -14.665194 2.228139 -1.942354 -2.030805 17.698832 36.038361 -30.651844 -54.795486 -16.190693 11.367832 28.686211 -7.488275 6.197130 3.904961 -17.360825 19.044792 
99.297157 43.789639 112.681137 -25.237608 3.207294 -161.041733 48.007187 -11.890401 -0.671172 -20.839844 0.000000 0.000000 2.644122 -10.423819 27.094877 -2.520846 -1.255050 0.218350 -4.754609 -0.109183 -0.002653 -84.874367 -37.056824 13.084037 -80.683014 -5.656512 10.045622 12.685034 -8.940591 12.684652 4.754609 0.109183 -0.002672 53.298454 5.803301 -8.288239 112.762718 9.990991 6.467608 -39.785843 16.625553 10.203310 -32.360546 18.866360 -14.806208 1.579725 -0.925724 -2.302995 16.988800 36.102375 -30.039007 -52.510277 -17.108406 10.813883 29.669144 -7.584716 6.279476 6.173832 -16.231024 19.233639 
98.990517 44.057682 112.525276 -22.936150 2.653437 -159.686432 47.214859 -10.454042 0.983407 -20.839844 0.000000 0.000000 1.570243 -10.087389 27.063187 -2.520846 -1.255050 0.218350 -4.754609 -0.109183 -0.002653 -82.281822 -37.121571 10.800452 -81.594948 -4.673816 9.706656 12.864620 -8.497289 12.592777 4.754609 0.109183 -0.002672 53.879208 5.588234 -7.432456 113.802010 10.912343 6.322772 -40.761810 16.330843 10.830338 -28.791010 18.132242 -14.761562 -0.375141 -0.406410 -2.664797 17.245653 35.844463 -30.435766 -50.213860 -17.636545 9.557618 31.178137 -7.152731 6.306005 6.880754 -14.097704 18.888023 
98.841766 44.255165 112.281075 -20.571123 2.103009 -158.210739 46.403545 -9.016997 2.779312 -20.839844 0.000000 0.000000 0.528155 -9.572972 26.848467 -2.520846 -1.255050 0.218350 -4.754609 -0.109183 -0.002653 -79.636093 -37.303600 8.728414 -82.246872 -3.949499 9.273538 13.244699 -8.150275 12.202754 4.754609 0.109183 -0.002672 54.647141 6.973598 -5.804827 114.659195 12.342141 6.077819 -41.830776 15.913047 11.639283 -25.048376 17.949057 -14.693304 -2.741576 -0.243023 -3.160963 17.657516 35.555420 -30.931284 -47.553719 -17.948162 7.762387 32.896420 -6.215330 6.282917 4.990124 -11.697380 18.001060 
